<svg width="82" height="38" viewBox="0 0 82 38" xmlns="http://www.w3.org/2000/svg">
<path d="M8.26227 29.8419C8.89893 30.0194 9.38948 30.3523 9.7339 30.8405C10.0888 31.3287 10.2662 31.939 10.2662 32.6713C10.2662 33.7032 9.94786 34.4965 9.3112 35.0513C8.67454 35.595 7.77173 35.8669 6.60277 35.8669H2.65754C2.45923 35.8669 2.29746 35.8058 2.17221 35.6838C2.0574 35.5617 2 35.4008 2 35.2011V24.7989C2 24.5992 2.0574 24.4383 2.17221 24.3162C2.29746 24.1942 2.45923 24.1331 2.65754 24.1331H6.43056C7.5682 24.1331 8.45014 24.3994 9.07637 24.932C9.70259 25.4646 10.0157 26.2191 10.0157 27.1956C10.0157 27.828 9.85915 28.3717 9.54604 28.8266C9.24336 29.2816 8.81544 29.62 8.26227 29.8419ZM3.26811 29.3426H6.24269C7.06722 29.3426 7.68823 29.165 8.10571 28.81C8.53364 28.4549 8.7476 27.939 8.7476 27.2621C8.7476 25.9307 7.91263 25.2649 6.24269 25.2649H3.26811V29.3426ZM6.47752 34.7351C7.3438 34.7351 7.98047 34.5687 8.38752 34.2358C8.805 33.8918 9.01374 33.3592 9.01374 32.638C9.01374 31.1956 8.16834 30.4743 6.47752 30.4743H3.26811V34.7351H6.47752Z" />
<path d="M18.7332 36C17.7104 36 16.818 35.7559 16.0561 35.2677C15.3046 34.7795 14.7254 34.086 14.3183 33.1872C13.9113 32.2885 13.7078 31.2288 13.7078 30.0083C13.7078 28.7767 13.9061 27.7115 14.3027 26.8128C14.7097 25.9029 15.289 25.2094 16.0404 24.7323C16.8024 24.2441 17.7 24 18.7332 24C19.7665 24 20.6589 24.2441 21.4103 24.7323C22.1723 25.2094 22.7515 25.9029 23.1481 26.8128C23.5552 27.7115 23.7587 28.7712 23.7587 29.9917C23.7587 31.2122 23.5552 32.2774 23.1481 33.1872C22.7411 34.086 22.1566 34.7795 21.3947 35.2677C20.6432 35.7559 19.7561 36 18.7332 36ZM18.7332 34.835C19.9022 34.835 20.8102 34.4189 21.4573 33.5867C22.1149 32.7434 22.4436 31.5451 22.4436 29.9917C22.4436 28.4383 22.1201 27.2455 21.473 26.4133C20.8259 25.5811 19.9126 25.165 18.7332 25.165C17.5643 25.165 16.651 25.5867 15.9935 26.43C15.3464 27.2621 15.0228 28.4494 15.0228 29.9917C15.0228 31.534 15.3464 32.7268 15.9935 33.57C16.651 34.4133 17.5643 34.835 18.7332 34.835Z" />
<path d="M32.2546 36C31.2318 36 30.3394 35.7559 29.5775 35.2677C28.826 34.7795 28.2467 34.086 27.8397 33.1872C27.4326 32.2885 27.2291 31.2288 27.2291 30.0083C27.2291 28.7767 27.4274 27.7115 27.824 26.8128C28.2311 25.9029 28.8103 25.2094 29.5618 24.7323C30.3237 24.2441 31.2213 24 32.2546 24C33.2879 24 34.1802 24.2441 34.9317 24.7323C35.6936 25.2094 36.2729 25.9029 36.6695 26.8128C37.0765 27.7115 37.2801 28.7712 37.2801 29.9917C37.2801 31.2122 37.0765 32.2774 36.6695 33.1872C36.2624 34.086 35.678 34.7795 34.9161 35.2677C34.1646 35.7559 33.2774 36 32.2546 36ZM32.2546 34.835C33.4235 34.835 34.3316 34.4189 34.9787 33.5867C35.6362 32.7434 35.965 31.5451 35.965 29.9917C35.965 28.4383 35.6414 27.2455 34.9943 26.4133C34.3472 25.5811 33.434 25.165 32.2546 25.165C31.0856 25.165 30.1724 25.5867 29.5148 26.43C28.8677 27.2621 28.5442 28.4494 28.5442 29.9917C28.5442 31.534 28.8677 32.7268 29.5148 33.57C30.1724 34.4133 31.0856 34.835 32.2546 34.835Z" />
<path d="M49.095 34.835C49.2411 34.9792 49.3141 35.1401 49.3141 35.3176C49.3141 35.473 49.2515 35.6172 49.1263 35.7503C49.0115 35.8724 48.8758 35.9334 48.7192 35.9334C48.5835 35.9334 48.4426 35.8669 48.2965 35.7337L42.4413 30.2913V35.251C42.4413 35.4619 42.3839 35.6338 42.2691 35.767C42.1543 35.889 41.9977 35.9501 41.7994 35.9501C41.6011 35.9501 41.4446 35.889 41.3298 35.767C41.2149 35.6338 41.1575 35.4619 41.1575 35.251V24.749C41.1575 24.5381 41.2149 24.3717 41.3298 24.2497C41.4446 24.1165 41.6011 24.0499 41.7994 24.0499C41.9977 24.0499 42.1543 24.1165 42.2691 24.2497C42.3839 24.3717 42.4413 24.5381 42.4413 24.749V29.5257L48.0304 24.2497C48.1452 24.1276 48.2809 24.0666 48.4374 24.0666C48.594 24.0666 48.7297 24.1331 48.8445 24.2663C48.9593 24.3883 49.0167 24.527 49.0167 24.6824C49.0167 24.8488 48.9488 25.0042 48.8132 25.1484L43.7564 29.8752L49.095 34.835Z" />
<path d="M53.1956 35.9501C52.9973 35.9501 52.8408 35.889 52.726 35.767C52.6112 35.6338 52.5538 35.4619 52.5538 35.251V24.749C52.5538 24.5381 52.6112 24.3717 52.726 24.2497C52.8408 24.1165 52.9973 24.0499 53.1956 24.0499C53.394 24.0499 53.5505 24.1165 53.6653 24.2497C53.7801 24.3717 53.8375 24.5381 53.8375 24.749V35.251C53.8375 35.4619 53.7801 35.6338 53.6653 35.767C53.5505 35.889 53.394 35.9501 53.1956 35.9501Z" />
<path d="M66.3755 24.0499C66.5634 24.0499 66.7095 24.1165 66.8139 24.2497C66.9183 24.3717 66.9704 24.5381 66.9704 24.749V35.251C66.9704 35.4619 66.913 35.6338 66.7982 35.767C66.6939 35.889 66.5425 35.9501 66.3442 35.9501C66.1459 35.9501 65.9737 35.8558 65.8276 35.6671L59.3305 26.43V35.251C59.3305 35.4619 59.2731 35.6338 59.1583 35.767C59.0539 35.889 58.9078 35.9501 58.7199 35.9501C58.532 35.9501 58.3859 35.889 58.2815 35.767C58.1772 35.6338 58.125 35.4619 58.125 35.251V24.749C58.125 24.5381 58.1772 24.3717 58.2815 24.2497C58.3964 24.1165 58.5529 24.0499 58.7512 24.0499C58.96 24.0499 59.1374 24.1442 59.2835 24.3329L65.765 33.57V24.749C65.765 24.5381 65.8171 24.3717 65.9215 24.2497C66.0363 24.1165 66.1877 24.0499 66.3755 24.0499Z" />
<path d="M79.4677 29.7587C79.6243 29.7587 79.7495 29.8086 79.8434 29.9085C79.9478 30.0083 80 30.147 80 30.3245V34.4688C80 34.7351 79.9583 34.9348 79.8748 35.068C79.8017 35.2011 79.6608 35.3065 79.452 35.3842C79.0346 35.5728 78.5284 35.7226 77.9335 35.8336C77.3385 35.9445 76.7436 36 76.1487 36C75.0528 36 74.1082 35.7614 73.315 35.2843C72.5218 34.8072 71.9112 34.1193 71.4833 33.2205C71.0658 32.3218 70.8571 31.2455 70.8571 29.9917C70.8571 28.7601 71.0658 27.6949 71.4833 26.7961C71.9008 25.8974 72.5009 25.2094 73.2837 24.7323C74.0665 24.2441 74.985 24 76.0391 24C76.7697 24 77.4481 24.1221 78.0743 24.3662C78.7006 24.5992 79.2277 24.9376 79.6556 25.3814C79.833 25.57 79.9217 25.7642 79.9217 25.9639C79.9217 26.1193 79.88 26.258 79.7965 26.38C79.713 26.491 79.6086 26.5465 79.4834 26.5465C79.3581 26.5465 79.212 26.4799 79.045 26.3467C78.5023 25.9029 78.0117 25.5978 77.5734 25.4313C77.135 25.2538 76.6288 25.165 76.0548 25.165C74.8128 25.165 73.8578 25.5811 73.1898 26.4133C72.5322 27.2455 72.2035 28.4383 72.2035 29.9917C72.2035 31.5784 72.5375 32.7878 73.2054 33.62C73.8839 34.4411 74.8754 34.8516 76.18 34.8516C77.1507 34.8516 78.0326 34.6963 78.8258 34.3856V30.8239H76.5401C76.3627 30.8239 76.2218 30.7739 76.1174 30.6741C76.013 30.5742 75.9608 30.4466 75.9608 30.2913C75.9608 30.1248 76.013 29.9972 76.1174 29.9085C76.2218 29.8086 76.3627 29.7587 76.5401 29.7587H79.4677Z" />
<path d="M15.8522 0.385193C15.7732 1.25435 15.7139 2.09387 15.6744 2.90376C15.6547 3.71366 15.6448 4.33589 15.6448 4.77047C15.6448 5.16554 15.6547 5.54086 15.6744 5.89642C15.6942 6.25198 15.7139 6.54829 15.7337 6.78533H15.0522C14.8546 5.34332 14.5485 4.2075 14.1336 3.37785C13.7188 2.52845 13.1756 1.93584 12.504 1.60003C11.8521 1.24447 11.0817 1.06669 10.1928 1.06669H8.97797C8.38536 1.06669 7.94091 1.11607 7.64461 1.21484C7.36806 1.31361 7.1804 1.51114 7.08163 1.80744C6.98286 2.08399 6.93348 2.53832 6.93348 3.17044V18.5782C6.93348 19.1905 6.98286 19.6449 7.08163 19.9412C7.1804 20.2375 7.36806 20.435 7.64461 20.5338C7.94091 20.6325 8.38536 20.6819 8.97797 20.6819H10.4298C11.3188 20.6819 12.099 20.4943 12.7706 20.1189C13.462 19.7239 14.0447 19.0621 14.5188 18.1337C15.0127 17.2053 15.388 15.951 15.6448 14.3707H16.3263C16.267 15.0028 16.2374 15.8324 16.2374 16.8596C16.2374 17.3139 16.2473 17.9559 16.267 18.7856C16.2868 19.6152 16.346 20.4745 16.4448 21.3634C15.4374 21.3239 14.3015 21.3042 13.0373 21.3042C11.7731 21.2844 10.6471 21.2745 9.65946 21.2745C8.98784 21.2745 8.09894 21.2745 6.99274 21.2745C5.88654 21.2745 4.71121 21.2844 3.46674 21.3042C2.22227 21.3042 1.06669 21.3239 0 21.3634V20.7708C0.632112 20.7313 1.1062 20.6523 1.42225 20.5338C1.73831 20.4152 1.94572 20.1782 2.04449 19.8226C2.16301 19.4671 2.22227 18.9337 2.22227 18.2226V3.526C2.22227 2.79512 2.16301 2.26178 2.04449 1.92597C1.94572 1.5704 1.72843 1.33336 1.39262 1.21484C1.07657 1.07657 0.612359 0.997551 0 0.977797V0.385193C1.06669 0.404947 2.22227 0.4247 3.46674 0.444453C4.71121 0.464206 5.88654 0.474083 6.99274 0.474083C8.09894 0.474083 8.98784 0.474083 9.65946 0.474083C10.5681 0.474083 11.5953 0.474083 12.741 0.474083C13.9065 0.45433 14.9435 0.4247 15.8522 0.385193ZM11.2299 10.5187C11.2299 10.5187 11.2299 10.6175 11.2299 10.815C11.2299 11.0126 11.2299 11.1113 11.2299 11.1113H6.04457C6.04457 11.1113 6.04457 11.0126 6.04457 10.815C6.04457 10.6175 6.04457 10.5187 6.04457 10.5187H11.2299ZM12.0891 6.60755C12.0101 7.7335 11.9706 8.59277 11.9706 9.18538C11.9904 9.77798 12.0003 10.3212 12.0003 10.815C12.0003 11.3089 12.0101 11.8521 12.0299 12.4447C12.0496 13.0373 12.099 13.8966 12.178 15.0225H11.4965C11.3978 14.3312 11.2101 13.6892 10.9336 13.0966C10.6768 12.504 10.3015 12.0299 9.80761 11.6743C9.31378 11.299 8.67179 11.1113 7.88165 11.1113V10.5187C8.67179 10.5187 9.3039 10.3015 9.77798 9.86687C10.2521 9.4323 10.6175 8.9187 10.8743 8.3261C11.1311 7.71374 11.3089 7.14089 11.4076 6.60755H12.0891Z" />
<path d="M31.6389 0.325932L38.839 18.8745C39.1156 19.5856 39.4217 20.0794 39.7575 20.356C40.1131 20.6128 40.4292 20.7511 40.7057 20.7708V21.3634C40.1131 21.3239 39.4119 21.3042 38.602 21.3042C37.8118 21.2844 37.0118 21.2745 36.2019 21.2745C35.2933 21.2745 34.434 21.2844 33.6241 21.3042C32.8142 21.3042 32.1722 21.3239 31.6981 21.3634V20.7708C32.7055 20.7313 33.3377 20.5634 33.5945 20.2671C33.871 19.951 33.8117 19.2893 33.4167 18.2819L28.3795 4.5038L28.9129 3.73341L24.4091 15.467C23.856 16.9288 23.5794 18.0349 23.5794 18.7856C23.5992 19.5362 23.8461 20.0498 24.3202 20.3264C24.7943 20.5831 25.4264 20.7313 26.2165 20.7708V21.3634C25.5647 21.3239 24.9424 21.3042 24.3498 21.3042C23.7572 21.2844 23.1547 21.2745 22.5424 21.2745C22.1078 21.2745 21.693 21.2844 21.2979 21.3042C20.9226 21.3042 20.5868 21.3239 20.2905 21.3634V20.7708C20.7053 20.6918 21.13 20.4251 21.5646 19.9708C21.9991 19.5165 22.4239 18.7461 22.8387 17.6596L29.5944 0.325932C29.9104 0.345685 30.2462 0.355562 30.6018 0.355562C30.9771 0.355562 31.3228 0.345685 31.6389 0.325932ZM33.713 12.8299V13.4225H24.8832L25.1795 12.8299H33.713Z" />
<path d="M51.8761 0C53.0415 0 53.9403 0.128398 54.5724 0.385193C55.2046 0.622235 55.7478 0.87903 56.2021 1.15558C56.4391 1.29385 56.6268 1.4025 56.7651 1.48151C56.9231 1.54077 57.0713 1.5704 57.2095 1.5704C57.5256 1.5704 57.7429 1.13583 57.8614 0.266672H58.5429C58.5231 0.641989 58.4935 1.09632 58.454 1.62966C58.4343 2.14325 58.4145 2.82475 58.3947 3.67415C58.3947 4.52355 58.3947 5.63963 58.3947 7.02237H57.7132C57.6342 5.99519 57.3972 4.99763 57.0021 4.02971C56.6071 3.06179 56.0441 2.27165 55.3132 1.65929C54.6021 1.02718 53.723 0.711126 52.6761 0.711126C51.7279 0.711126 50.9477 0.977797 50.3353 1.51114C49.723 2.04449 49.4168 2.78524 49.4168 3.73341C49.4168 4.52355 49.6143 5.20505 50.0094 5.7779C50.4045 6.331 50.9773 6.87422 51.7279 7.40756C52.4983 7.94091 53.4267 8.5829 54.5132 9.33353C55.4614 9.94589 56.3108 10.5582 57.0614 11.1706C57.812 11.783 58.4145 12.4743 58.8688 13.2447C59.3232 14.0151 59.5503 14.9336 59.5503 16.0003C59.5503 17.3041 59.2046 18.3806 58.5133 19.23C57.8417 20.0794 56.9527 20.7214 55.8465 21.156C54.7403 21.5708 53.5255 21.7782 52.202 21.7782C50.9773 21.7782 49.9995 21.6597 49.2686 21.4227C48.5378 21.1856 47.9254 20.9387 47.4316 20.6819C46.997 20.4054 46.6612 20.2671 46.4241 20.2671C46.1081 20.2671 45.8908 20.7017 45.7723 21.5708H45.0908C45.1303 21.0967 45.15 20.5436 45.15 19.9115C45.1698 19.2794 45.1797 18.4596 45.1797 17.4522C45.1994 16.425 45.2093 15.1312 45.2093 13.5707H45.8908C45.9698 14.8744 46.1871 16.0991 46.5426 17.2448C46.918 18.3708 47.4809 19.2794 48.2316 19.9708C49.002 20.6622 50.0193 21.0079 51.2835 21.0079C52.3107 21.0079 53.1798 20.7313 53.8909 20.1782C54.6021 19.6251 54.9576 18.7955 54.9576 17.6893C54.9576 16.4645 54.5428 15.4571 53.7132 14.667C52.8835 13.8571 51.8168 13.0274 50.5131 12.178C49.5847 11.5657 48.7155 10.9533 47.9056 10.341C47.0957 9.7286 46.4439 9.02735 45.95 8.23721C45.476 7.44707 45.2389 6.50878 45.2389 5.42233C45.2389 4.17786 45.5451 3.16056 46.1575 2.37042C46.7896 1.56053 47.6093 0.967921 48.6168 0.592604C49.6439 0.197535 50.7304 0 51.8761 0Z" />
<path d="M81.7492 0.355562V0.948168C81.3146 1.12595 80.8701 1.48151 80.4158 2.01486C79.9615 2.52845 79.4578 3.31859 78.9047 4.38528L73.3046 15.467H71.9119L64.9785 2.63709C64.6229 1.96547 64.297 1.52102 64.0007 1.30373C63.7241 1.08644 63.4772 0.977797 63.2599 0.977797V0.355562C63.7932 0.414822 64.3365 0.45433 64.8896 0.474083C65.4624 0.493836 66.0846 0.503713 66.7563 0.503713C67.6254 0.503713 68.5637 0.493836 69.5711 0.474083C70.5786 0.434577 71.4971 0.395069 72.3268 0.355562V0.977797C71.8329 0.977797 71.3885 1.0173 70.9934 1.09632C70.5983 1.17533 70.3218 1.32348 70.1637 1.54077C70.0057 1.73831 70.0452 2.06424 70.2823 2.51857L74.9638 11.5262L74.0453 12.7114L77.0972 6.57792C77.8281 5.15566 78.2133 4.03959 78.2528 3.2297C78.3121 2.4198 78.1145 1.84695 77.6602 1.51114C77.2256 1.15558 76.6034 0.967921 75.7935 0.948168V0.355562C76.4651 0.375316 77.0972 0.39507 77.6898 0.414823C78.2824 0.434576 78.8849 0.444453 79.4973 0.444453C79.9319 0.444453 80.3368 0.434576 80.7121 0.414823C81.1072 0.39507 81.4529 0.375316 81.7492 0.355562ZM75.4083 10.7854V18.2226C75.4083 18.9337 75.4577 19.4671 75.5564 19.8226C75.675 20.1782 75.8923 20.4152 76.2083 20.5338C76.5244 20.6523 76.9985 20.7313 77.6306 20.7708V21.3634C77.0972 21.3239 76.4059 21.3042 75.5564 21.3042C74.7268 21.2844 73.8972 21.2745 73.0675 21.2745C72.1391 21.2745 71.2601 21.2844 70.4304 21.3042C69.6008 21.3042 68.9489 21.3239 68.4748 21.3634V20.7708C69.1069 20.7313 69.581 20.6523 69.8971 20.5338C70.2131 20.4152 70.4205 20.1782 70.5193 19.8226C70.6378 19.4671 70.6971 18.9337 70.6971 18.2226V12.1484L73.2749 13.9855L75.4083 10.7854Z" />
</svg>
