<svg width="8" height="8" viewBox="0 0 8 8" fill="none" xmlns="http://www.w3.org/2000/svg">
<path d="M7.85549 1.78068L7.15356 1.07876C7.05732 0.982442 6.94026 0.934265 6.80267 0.934265C6.66496 0.934265 6.5479 0.982442 6.45166 1.07876L3.06581 4.46973L1.54838 2.94713C1.45202 2.85078 1.33504 2.80265 1.19745 2.80265C1.05977 2.80265 0.942791 2.85078 0.846436 2.94713L0.144514 3.64907C0.0481591 3.74541 0 3.86243 0 4.00009C0 4.13764 0.0481591 4.25477 0.144514 4.35109L2.01287 6.2194L2.71484 6.92133C2.81114 7.01772 2.92816 7.06584 3.06581 7.06584C3.20339 7.06584 3.32041 7.01759 3.41677 6.92133L4.11873 6.2194L7.85549 2.48266C7.95175 2.38631 8 2.26931 8 2.13164C8.00007 1.99406 7.95175 1.87704 7.85549 1.78068Z" fill="#12171D"/>
</svg>
