<svg width="16" height="16" viewBox="0 0 16 16" fill="none" xmlns="http://www.w3.org/2000/svg">
<path fill-rule="evenodd" clip-rule="evenodd" d="M8.00002 0C5.82733 0 5.5549 0.00920925 4.70161 0.0481422C3.8501 0.0869798 3.26856 0.222229 2.7597 0.420006C2.23363 0.624419 1.78748 0.897966 1.34271 1.34271C0.897966 1.78748 0.624419 2.23363 0.420006 2.7597C0.222229 3.26856 0.0869798 3.8501 0.0481422 4.70161C0.00920925 5.5549 0 5.82733 0 8.00002C0 10.1727 0.00920925 10.4451 0.0481422 11.2984C0.0869798 12.1499 0.222229 12.7314 0.420006 13.2403C0.624419 13.7664 0.897966 14.2125 1.34271 14.6573C1.78748 15.102 2.23363 15.3756 2.7597 15.58C3.26856 15.7778 3.8501 15.913 4.70161 15.9519C5.5549 15.9908 5.82733 16 8.00002 16C10.1727 16 10.4451 15.9908 11.2984 15.9519C12.1499 15.913 12.7314 15.7778 13.2403 15.58C13.7664 15.3756 14.2125 15.102 14.6573 14.6573C15.102 14.2125 15.3756 13.7664 15.58 13.2403C15.7778 12.7314 15.913 12.1499 15.9519 11.2984C15.9908 10.4451 16 10.1727 16 8.00002C16 5.82733 15.9908 5.5549 15.9519 4.70161C15.913 3.8501 15.7778 3.26856 15.58 2.7597C15.3756 2.23363 15.102 1.78748 14.6573 1.34271C14.2125 0.897966 13.7664 0.624419 13.2403 0.420006C12.7314 0.222229 12.1499 0.0869798 11.2984 0.0481422C10.4451 0.00920925 10.1727 0 8.00002 0ZM8.00008 1.44147C10.1362 1.44147 10.3892 1.44963 11.2328 1.48812C12.0127 1.52369 12.4363 1.65402 12.7182 1.76358C13.0917 1.9087 13.3582 2.08206 13.6381 2.36202C13.918 2.64195 14.0914 2.90844 14.2365 3.28186C14.3461 3.56376 14.4764 3.98736 14.512 4.76735C14.5505 5.61092 14.5586 5.86395 14.5586 8.00005C14.5586 10.1361 14.5505 10.3892 14.512 11.2327C14.4764 12.0127 14.3461 12.4363 14.2365 12.7182C14.0914 13.0916 13.918 13.3581 13.6381 13.6381C13.3582 13.918 13.0917 14.0914 12.7182 14.2365C12.4363 14.3461 12.0127 14.4764 11.2328 14.5119C10.3893 14.5504 10.1363 14.5586 8.00008 14.5586C5.86382 14.5586 5.61085 14.5504 4.76738 14.5119C3.98739 14.4764 3.56379 14.3461 3.28189 14.2365C2.90847 14.0914 2.64198 13.918 2.36205 13.6381C2.08212 13.3581 1.90873 13.0916 1.76361 12.7182C1.65405 12.4363 1.52372 12.0127 1.48815 11.2327C1.44967 10.3892 1.4415 10.1361 1.4415 8.00005C1.4415 5.86395 1.44967 5.61092 1.48815 4.76735C1.52372 3.98736 1.65405 3.56376 1.76361 3.28186C1.90873 2.90844 2.08209 2.64195 2.36205 2.36202C2.64198 2.08206 2.90847 1.9087 3.28189 1.76358C3.56379 1.65402 3.98739 1.52369 4.76738 1.48812C5.61095 1.44963 5.86398 1.44147 8.00008 1.44147ZM3.89183 7.99998C3.89183 5.73111 5.73108 3.89186 7.99995 3.89186C10.2688 3.89186 12.108 5.73111 12.108 7.99998C12.108 10.2688 10.2688 12.1081 7.99995 12.1081C5.73108 12.1081 3.89183 10.2688 3.89183 7.99998ZM8.00002 10.6667C6.52723 10.6667 5.33333 9.47277 5.33333 8.00002C5.33333 6.52723 6.52723 5.33333 8.00002 5.33333C9.47277 5.33333 10.6667 6.52723 10.6667 8.00002C10.6667 9.47277 9.47277 10.6667 8.00002 10.6667ZM12.2704 4.68962C12.8006 4.68962 13.2304 4.25983 13.2304 3.72963C13.2304 3.19943 12.8006 2.76961 12.2704 2.76961C11.7402 2.76961 11.3104 3.19943 11.3104 3.72963C11.3104 4.25983 11.7402 4.68962 12.2704 4.68962Z" fill="#12171D"/>
</svg>
