<svg width="14" height="14" viewBox="0 0 14 14" fill="none" xmlns="http://www.w3.org/2000/svg">
<path d="M9.47431 7.47333C10.1279 6.9591 10.605 6.25394 10.8391 5.45596C11.0733 4.65797 11.0529 3.80684 10.7808 3.02097C10.5087 2.23511 9.99848 1.55359 9.32102 1.07123C8.64357 0.588876 7.83261 0.329666 7.00097 0.329666C6.16934 0.329666 5.35838 0.588876 4.68093 1.07123C4.00347 1.55359 3.4932 2.23511 3.22112 3.02097C2.94903 3.80684 2.92865 4.65797 3.16282 5.45596C3.39698 6.25394 3.87405 6.9591 4.52764 7.47333C3.40769 7.92202 2.4305 8.66623 1.70024 9.62661C0.969973 10.587 0.514016 11.7275 0.380974 12.9267C0.371344 13.0142 0.379052 13.1028 0.403658 13.1874C0.428264 13.2719 0.469286 13.3508 0.524382 13.4195C0.635654 13.5583 0.797497 13.6472 0.974308 13.6667C1.15112 13.6861 1.32841 13.6345 1.46719 13.5233C1.60597 13.412 1.69486 13.2501 1.71431 13.0733C1.8607 11.7701 2.4821 10.5665 3.45979 9.69252C4.43748 8.81851 5.70291 8.33535 7.01431 8.33535C8.32571 8.33535 9.59114 8.81851 10.5688 9.69252C11.5465 10.5665 12.1679 11.7701 12.3143 13.0733C12.3324 13.2371 12.4106 13.3884 12.5337 13.498C12.6568 13.6076 12.8162 13.6677 12.981 13.6667H13.0543C13.2291 13.6466 13.3888 13.5582 13.4987 13.4208C13.6086 13.2835 13.6597 13.1082 13.641 12.9333C13.5073 11.7308 13.0489 10.5873 12.3149 9.62547C11.5809 8.66361 10.5989 7.91965 9.47431 7.47333ZM7.00097 7C6.47356 7 5.95799 6.8436 5.51945 6.55058C5.08092 6.25757 4.73913 5.84109 4.5373 5.35382C4.33546 4.86655 4.28265 4.33037 4.38555 3.81309C4.48844 3.29581 4.74242 2.82065 5.11536 2.44771C5.4883 2.07477 5.96345 1.8208 6.48073 1.7179C6.99802 1.61501 7.53419 1.66782 8.02146 1.86965C8.50873 2.07148 8.92521 2.41328 9.21823 2.85181C9.51124 3.29034 9.66764 3.80591 9.66764 4.33333C9.66764 5.04057 9.38669 5.71885 8.88659 6.21895C8.3865 6.71905 7.70822 7 7.00097 7Z" fill="white"/>
</svg>
