<svg width="16" height="17" viewBox="0 0 16 17" fill="none" xmlns="http://www.w3.org/2000/svg">
<path fill-rule="evenodd" clip-rule="evenodd" d="M8.11246 6.54951V9.78383C8.11246 9.78383 11.2293 9.77962 12.4983 9.77962C11.8111 11.8764 10.7425 13.0182 8.11246 13.0182C5.45085 13.0182 3.3735 10.8461 3.3735 8.16667C3.3735 5.48727 5.45085 3.31518 8.11246 3.31518C9.51969 3.31518 10.4285 3.81311 11.2622 4.50711C11.9295 3.83534 11.8738 3.73961 13.5715 2.1256C12.1303 0.805023 10.2148 0 8.11246 0C3.63205 0 0 3.65632 0 8.16667C0 12.6769 3.63205 16.3333 8.11246 16.3333C14.8094 16.3333 16.4463 10.463 15.9036 6.54951C14.3183 6.54951 8.11246 6.54951 8.11246 6.54951Z" fill="#12171D"/>
</svg>
