<svg width="14" height="14" viewBox="0 0 14 14" fill="none" xmlns="http://www.w3.org/2000/svg">
<path fill-rule="evenodd" clip-rule="evenodd" d="M0.339355 0.215892C0.339355 0.0966261 0.436008 0 0.555248 0C7.78529 0 13.6674 5.90781 13.6673 13.1695C13.6673 13.2888 13.5707 13.3854 13.4515 13.3854H10.9699C10.8507 13.3854 10.754 13.2888 10.754 13.1695C10.754 7.51477 6.17885 2.91434 0.555248 2.91434C0.435982 2.91434 0.339355 2.81771 0.339355 2.69845V0.215892ZM0.551774 7.31585C2.10454 7.31585 3.56488 7.92321 4.66374 9.02594C5.76265 10.1306 6.36787 11.6015 6.36787 13.1677C6.36787 13.2869 6.4645 13.3836 6.58377 13.3836H9.06595C9.18522 13.3836 9.28185 13.2869 9.28185 13.1677C9.28185 8.33372 5.36556 4.40101 0.551748 4.40101C0.432482 4.40101 0.335856 4.49764 0.335856 4.61691V7.0999C0.335882 7.21917 0.43256 7.31585 0.551774 7.31585ZM4.20449 11.4351C4.20449 10.3678 3.33637 9.49945 2.26936 9.49945C1.20218 9.49945 0.333984 10.3678 0.333984 11.4351C0.333984 12.5022 1.20218 13.3704 2.26936 13.3704C3.3364 13.3704 4.20449 12.5022 4.20449 11.4351Z" fill="#12171D"/>
</svg>
