<svg width="14" height="14" viewBox="0 0 14 14" fill="none" xmlns="http://www.w3.org/2000/svg">
<path d="M13.4742 12.5267L11.0009 10.0733C11.961 8.87628 12.4259 7.35687 12.3001 5.82754C12.1743 4.29821 11.4674 2.87519 10.3246 1.8511C9.18182 0.827009 7.69012 0.279678 6.15619 0.321652C4.62227 0.363626 3.16273 0.991713 2.07767 2.07677C0.992621 3.16182 0.364533 4.62136 0.32256 6.15529C0.280586 7.68921 0.827917 9.18092 1.85201 10.3237C2.8761 11.4665 4.29911 12.1734 5.82845 12.2992C7.35778 12.425 8.87719 11.9601 10.0742 11L12.5276 13.4533C12.5896 13.5158 12.6633 13.5654 12.7445 13.5993C12.8258 13.6331 12.9129 13.6505 13.0009 13.6505C13.0889 13.6505 13.1761 13.6331 13.2573 13.5993C13.3385 13.5654 13.4123 13.5158 13.4742 13.4533C13.5944 13.329 13.6616 13.1629 13.6616 12.99C13.6616 12.8171 13.5944 12.651 13.4742 12.5267ZM6.33425 11C5.41127 11 4.50901 10.7263 3.74158 10.2135C2.97416 9.70075 2.37602 8.97192 2.02281 8.11919C1.6696 7.26647 1.57718 6.32816 1.75725 5.42292C1.93731 4.51767 2.38177 3.68615 3.03441 3.03351C3.68706 2.38086 4.51858 1.9364 5.42382 1.75634C6.32907 1.57628 7.26738 1.66869 8.1201 2.0219C8.97282 2.37511 9.70166 2.97325 10.2144 3.74068C10.7272 4.50811 11.0009 5.41036 11.0009 6.33334C11.0009 7.57101 10.5092 8.758 9.63408 9.63317C8.75891 10.5083 7.57192 11 6.33425 11Z" fill="white"/>
</svg>
