<svg width="16" height="16" viewBox="0 0 16 16" fill="none" xmlns="http://www.w3.org/2000/svg">
<path fill-rule="evenodd" clip-rule="evenodd" d="M2.11954 0C0.950814 0 0 0.951876 0 2.12188C0 3.29241 0.950814 4.24465 2.11954 4.24465C3.28733 4.24465 4.23737 3.29236 4.23737 2.12188C4.23742 0.951876 3.28733 0 2.11954 0ZM3.724 5.14097H0.511971C0.369416 5.14097 0.253906 5.25678 0.253906 5.3996V15.7412C0.253906 15.8841 0.369416 15.9999 0.511971 15.9999H3.724C3.86656 15.9999 3.98206 15.8841 3.98206 15.7412V5.3996C3.98206 5.25678 3.86656 5.14097 3.724 5.14097ZM9.07203 6.07127C9.65045 5.43974 10.6041 4.88394 11.8942 4.88394C15.512 4.88394 15.9998 7.50488 15.9998 10.0687V15.7413C15.9998 15.8842 15.8843 15.9999 15.7417 15.9999H12.5355C12.393 15.9999 12.2775 15.8842 12.2775 15.7413V10.7132C12.2775 9.30544 12.1737 8.22859 10.8675 8.22859C9.66826 8.22859 9.20096 8.90032 9.20096 10.6245V15.7412C9.20096 15.8841 9.08545 15.9999 8.94289 15.9999H5.73788C5.59533 15.9999 5.47982 15.8841 5.47982 15.7412V5.3996C5.47982 5.25678 5.59533 5.14097 5.73788 5.14097H8.81396C8.95652 5.14097 9.07203 5.25678 9.07203 5.3996V6.07127Z" fill="#12171D"/>
</svg>
