<svg width="10" height="11" viewBox="0 0 10 11" fill="none" xmlns="http://www.w3.org/2000/svg">
<path d="M3.29883 7.28711C3.58398 6.68945 3.92383 6.0332 4.31836 5.31836C4.71289 4.60352 5.1582 3.89062 5.6543 3.17969C6.1543 2.46875 6.51758 1.99805 6.74414 1.76758C6.97461 1.5332 7.16797 1.34766 7.32422 1.21094C7.48438 1.07422 7.76562 0.974609 8.16797 0.912109C8.57031 0.849609 8.875 0.818359 9.08203 0.818359C9.21875 0.818359 9.33008 0.861328 9.41602 0.947266C9.50586 1.0293 9.55078 1.13867 9.55078 1.27539C9.55078 1.38086 9.52539 1.47266 9.47461 1.55078C9.42383 1.625 9.31836 1.73828 9.1582 1.89062C8.38867 2.59766 7.58789 3.60547 6.75586 4.91406C5.92383 6.22266 5.26367 7.49023 4.77539 8.7168C4.54492 9.2793 4.39648 9.60938 4.33008 9.70703C4.26367 9.80469 4.16211 9.89648 4.02539 9.98242C3.88867 10.0645 3.60742 10.1055 3.18164 10.1055C2.8457 10.1055 2.63086 10.084 2.53711 10.041C2.44336 10.002 2.37109 9.95898 2.32031 9.91211C2.26953 9.86523 2.125 9.66211 1.88672 9.30273C1.64062 8.92383 1.2832 8.47656 0.814453 7.96094C0.544922 7.66406 0.410156 7.41602 0.410156 7.2168C0.410156 6.92773 0.5625 6.67578 0.867188 6.46094C1.17578 6.24609 1.44727 6.13867 1.68164 6.13867C1.93945 6.13867 2.21484 6.24414 2.50781 6.45508C2.80078 6.66211 3.06445 6.93945 3.29883 7.28711Z" fill="#12171D"/>
</svg>
