<svg width="6" height="6" viewBox="0 0 6 6" fill="none" xmlns="http://www.w3.org/2000/svg">
<path d="M5.77847 0.221528C5.70885 0.151333 5.62602 0.0956183 5.53476 0.057597C5.4435 0.0195756 5.34561 0 5.24674 0C5.14788 0 5.04999 0.0195756 4.95873 0.057597C4.86747 0.0956183 4.78464 0.151333 4.71501 0.221528L3 1.94403L1.28499 0.221528C1.14396 0.0805044 0.952694 0.00127819 0.753257 0.0012782C0.55382 0.0012782 0.362551 0.0805044 0.221528 0.221528C0.0805044 0.362551 0.0012782 0.55382 0.0012782 0.753257C0.00127819 0.952694 0.0805044 1.14396 0.221528 1.28499L1.94403 3L0.221528 4.71501C0.151333 4.78464 0.0956183 4.86747 0.057597 4.95873C0.0195756 5.04999 0 5.14788 0 5.24674C0 5.34561 0.0195756 5.4435 0.057597 5.53476C0.0956183 5.62602 0.151333 5.70885 0.221528 5.77847C0.291149 5.84867 0.37398 5.90438 0.465242 5.9424C0.556504 5.98043 0.654392 6 0.753257 6C0.852123 6 0.95001 5.98043 1.04127 5.9424C1.13253 5.90438 1.21536 5.84867 1.28499 5.77847L3 4.05597L4.71501 5.77847C4.78464 5.84867 4.86747 5.90438 4.95873 5.9424C5.04999 5.98043 5.14788 6 5.24674 6C5.34561 6 5.4435 5.98043 5.53476 5.9424C5.62602 5.90438 5.70885 5.84867 5.77847 5.77847C5.84867 5.70885 5.90438 5.62602 5.9424 5.53476C5.98043 5.4435 6 5.34561 6 5.24674C6 5.14788 5.98043 5.04999 5.9424 4.95873C5.90438 4.86747 5.84867 4.78464 5.77847 4.71501L4.05597 3L5.77847 1.28499C5.84867 1.21536 5.90438 1.13253 5.9424 1.04127C5.98043 0.95001 6 0.852123 6 0.753257C6 0.654392 5.98043 0.556504 5.9424 0.465242C5.90438 0.37398 5.84867 0.291149 5.77847 0.221528Z" fill="#12171D"/>
</svg>
