<svg width="24" height="24" viewBox="0 0 24 24" fill="none" xmlns="http://www.w3.org/2000/svg">
<path d="M10.9167 17.4C11.1598 17.4 11.3929 17.3052 11.5648 17.1364C11.7368 16.9676 11.8333 16.7387 11.8333 16.5V11.1C11.8333 10.8613 11.7368 10.6324 11.5648 10.4636C11.3929 10.2948 11.1598 10.2 10.9167 10.2C10.6736 10.2 10.4404 10.2948 10.2685 10.4636C10.0966 10.6324 10 10.8613 10 11.1V16.5C10 16.7387 10.0966 16.9676 10.2685 17.1364C10.4404 17.3052 10.6736 17.4 10.9167 17.4ZM20.0833 6.6H16.4167V5.7C16.4167 4.98392 16.1269 4.29716 15.6112 3.79081C15.0955 3.28446 14.396 3 13.6667 3H11.8333C11.104 3 10.4045 3.28446 9.88879 3.79081C9.37306 4.29716 9.08333 4.98392 9.08333 5.7V6.6H5.41667C5.17355 6.6 4.94039 6.69482 4.76849 6.8636C4.59658 7.03239 4.5 7.2613 4.5 7.5C4.5 7.73869 4.59658 7.96761 4.76849 8.1364C4.94039 8.30518 5.17355 8.4 5.41667 8.4H6.33333V18.3C6.33333 19.0161 6.62306 19.7028 7.13879 20.2092C7.65451 20.7155 8.35399 21 9.08333 21H16.4167C17.146 21 17.8455 20.7155 18.3612 20.2092C18.8769 19.7028 19.1667 19.0161 19.1667 18.3V8.4H20.0833C20.3264 8.4 20.5596 8.30518 20.7315 8.1364C20.9034 7.96761 21 7.73869 21 7.5C21 7.2613 20.9034 7.03239 20.7315 6.8636C20.5596 6.69482 20.3264 6.6 20.0833 6.6ZM10.9167 5.7C10.9167 5.46131 11.0132 5.23239 11.1852 5.0636C11.3571 4.89482 11.5902 4.8 11.8333 4.8H13.6667C13.9098 4.8 14.1429 4.89482 14.3148 5.0636C14.4868 5.23239 14.5833 5.46131 14.5833 5.7V6.6H10.9167V5.7ZM17.3333 18.3C17.3333 18.5387 17.2368 18.7676 17.0648 18.9364C16.8929 19.1052 16.6598 19.2 16.4167 19.2H9.08333C8.84022 19.2 8.60706 19.1052 8.43515 18.9364C8.26324 18.7676 8.16667 18.5387 8.16667 18.3V8.4H17.3333V18.3ZM14.5833 17.4C14.8264 17.4 15.0596 17.3052 15.2315 17.1364C15.4034 16.9676 15.5 16.7387 15.5 16.5V11.1C15.5 10.8613 15.4034 10.6324 15.2315 10.4636C15.0596 10.2948 14.8264 10.2 14.5833 10.2C14.3402 10.2 14.1071 10.2948 13.9352 10.4636C13.7632 10.6324 13.6667 10.8613 13.6667 11.1V16.5C13.6667 16.7387 13.7632 16.9676 13.9352 17.1364C14.1071 17.3052 14.3402 17.4 14.5833 17.4Z" fill="#12171D"/>
</svg>
