<svg width="14" height="14" viewBox="0 0 14 14" fill="none" xmlns="http://www.w3.org/2000/svg">
<path d="M8.33287 11C8.50968 11 8.67925 10.9298 8.80427 10.8047C8.9293 10.6797 8.99954 10.5101 8.99954 10.3333V9C8.99954 8.82319 8.9293 8.65362 8.80427 8.52859C8.67925 8.40357 8.50968 8.33333 8.33287 8.33333C8.15606 8.33333 7.98649 8.40357 7.86146 8.52859C7.73644 8.65362 7.6662 8.82319 7.6662 9V10.3333C7.6662 10.5101 7.73644 10.6797 7.86146 10.8047C7.98649 10.9298 8.15606 11 8.33287 11ZM5.6662 11C5.84301 11 6.01258 10.9298 6.13761 10.8047C6.26263 10.6797 6.33287 10.5101 6.33287 10.3333V9C6.33287 8.82319 6.26263 8.65362 6.13761 8.52859C6.01258 8.40357 5.84301 8.33333 5.6662 8.33333C5.48939 8.33333 5.31982 8.40357 5.1948 8.52859C5.06977 8.65362 4.99954 8.82319 4.99954 9V10.3333C4.99954 10.5101 5.06977 10.6797 5.1948 10.8047C5.31982 10.9298 5.48939 11 5.6662 11ZM11.6662 3H10.7462L9.59287 0.699998C9.55763 0.615367 9.50531 0.538914 9.43918 0.475416C9.37306 0.411919 9.29455 0.362742 9.20856 0.330959C9.12257 0.299176 9.03095 0.285469 8.93942 0.290696C8.84789 0.295923 8.75843 0.319971 8.67662 0.361337C8.5948 0.402703 8.5224 0.460498 8.46394 0.53111C8.40547 0.601722 8.3622 0.683634 8.33682 0.771727C8.31144 0.85982 8.3045 0.9522 8.31644 1.0431C8.32838 1.13399 8.35894 1.22145 8.4062 1.3L9.25287 3H4.7462L5.59287 1.3C5.65758 1.1446 5.66111 0.970479 5.60275 0.812589C5.54439 0.654698 5.42846 0.524729 5.27824 0.448775C5.12802 0.372821 4.95463 0.356505 4.79288 0.403104C4.63113 0.449702 4.49299 0.555765 4.4062 0.699998L3.25287 3H2.33287C1.86166 3.00716 1.40812 3.1805 1.05224 3.48942C0.696351 3.79834 0.460985 4.22302 0.38765 4.68854C0.314314 5.15406 0.40772 5.63052 0.651394 6.0339C0.895067 6.43727 1.27335 6.74164 1.71954 6.89333L2.21287 11.8667C2.26262 12.3617 2.4951 12.8204 2.86492 13.1533C3.23474 13.4861 3.71534 13.6692 4.21287 13.6667H9.79954C10.2971 13.6692 10.7777 13.4861 11.1475 13.1533C11.5173 12.8204 11.7498 12.3617 11.7995 11.8667L12.2929 6.89333C12.74 6.74119 13.1189 6.43571 13.3624 6.03099C13.6059 5.62626 13.6983 5.14842 13.6233 4.68209C13.5482 4.21577 13.3105 3.79106 12.9523 3.48318C12.5941 3.17531 12.1385 3.00414 11.6662 3ZM10.4595 11.7333C10.443 11.8983 10.3655 12.0513 10.2422 12.1622C10.1189 12.2731 9.95871 12.3342 9.79287 12.3333H4.2062C4.04036 12.3342 3.88016 12.2731 3.75689 12.1622C3.63361 12.0513 3.55612 11.8983 3.53954 11.7333L3.0662 7H10.9329L10.4595 11.7333ZM11.6662 5.66666H2.33287C2.15606 5.66666 1.98649 5.59643 1.86147 5.4714C1.73644 5.34638 1.6662 5.17681 1.6662 5C1.6662 4.82319 1.73644 4.65362 1.86147 4.52859C1.98649 4.40357 2.15606 4.33333 2.33287 4.33333H11.6662C11.843 4.33333 12.0126 4.40357 12.1376 4.52859C12.2626 4.65362 12.3329 4.82319 12.3329 5C12.3329 5.17681 12.2626 5.34638 12.1376 5.4714C12.0126 5.59643 11.843 5.66666 11.6662 5.66666Z" fill="white"/>
</svg>
