<svg width="16" height="14" viewBox="0 0 16 14" fill="none" xmlns="http://www.w3.org/2000/svg">
<path fill-rule="evenodd" clip-rule="evenodd" d="M16 1.57843C15.4121 1.84615 14.7791 2.02721 14.1152 2.1081C14.7932 1.69207 15.3135 1.03238 15.5586 0.246539C14.9238 0.631756 14.2222 0.912002 13.4728 1.06224C12.8755 0.40833 12.0218 0 11.0771 0C9.26548 0 7.79574 1.50716 7.79574 3.36584C7.79574 3.62971 7.82391 3.88588 7.88026 4.13242C5.15208 3.99181 2.73381 2.65318 1.11381 0.614422C0.831132 1.11328 0.669601 1.69207 0.669601 2.30841C0.669601 3.47562 1.24905 4.50608 2.12995 5.10991C1.59277 5.09353 1.08564 4.94041 0.642367 4.69002V4.73143C0.642367 6.36283 1.77402 7.72361 3.27663 8.03178C3.00147 8.11075 2.71128 8.15023 2.41169 8.15023C2.20039 8.15023 1.99378 8.13001 1.79374 8.09053C2.21166 9.42723 3.42314 10.4009 4.86001 10.4269C3.73681 11.3302 2.3206 11.8685 0.783237 11.8685C0.518401 11.8685 0.256383 11.8531 0 11.8223C1.45284 12.7757 3.17896 13.3333 5.03187 13.3333C11.0705 13.3333 14.3715 8.20513 14.3715 3.75683C14.3715 3.61045 14.3687 3.46407 14.3631 3.32057C15.0045 2.84579 15.5614 2.25352 16 1.57843Z" fill="#12171D"/>
</svg>
